<svg width="75" height="75" viewBox="0 0 75 75" fill="none" xmlns="http://www.w3.org/2000/svg">
<path d="M75 9.375C73.8375 22.2031 66.225 34.6594 53.5219 38.8687C54.45 37.1437 55.3844 35.2906 56.2781 33.2969C65.3875 28.5437 68.8937 20.0156 70.2281 13.7625H61.8281C62.0125 12.3562 62.15 10.8813 62.2625 9.37188H75V9.375ZM0 9.375C1.1625 22.2031 8.775 34.6594 21.4781 38.8687C20.55 37.1437 19.6156 35.2906 18.7219 33.2969C9.6125 28.5437 6.10625 20.0156 4.77187 13.7625H13.1719C12.9906 12.3594 12.8531 10.8812 12.7406 9.375H0V9.375ZM52.8781 9.375C51.7281 23.4563 46.775 31.9687 42.3406 39.5906C40.5375 42.6937 38.7906 45.6938 37.5187 48.8094C36.2437 45.6906 34.4906 42.6875 32.6813 39.5813C28.2375 31.9656 23.2719 23.4531 22.1219 9.375H52.8781ZM59.375 3.125H15.625C15.625 33.7594 31.5781 43.9156 33.1375 56.25H41.9031C43.4563 43.9156 59.375 33.7594 59.375 3.125ZM41.9937 59.375H33.0375C32.4062 63.0844 31.0688 67.5594 25.0031 67.5594V71.875H50.0031V67.5594C43.7562 67.5594 42.5937 63.0844 41.9937 59.375V59.375ZM30.6062 20.4L35.1687 19.7688L37.1781 15.625L39.1875 19.7688L43.75 20.4L40.4281 23.5906L41.2406 28.125L37.1781 25.9531L33.1156 28.125L33.9281 23.5906L30.6062 20.4V20.4Z" fill="#E7E7E7"/>
</svg>
