<svg width="75" height="75" viewBox="0 0 75 75" fill="none" xmlns="http://www.w3.org/2000/svg">
<path d="M17.5844 59.4594L24.6625 69.9562C22.6531 71.3562 20.8531 73.0531 19.325 75L17.825 67.1687H9.375C11.7031 64.2031 14.4719 61.6 17.5844 59.4594V59.4594ZM57.4156 59.4594L50.3375 69.9562C52.3469 71.3562 54.1469 73.0531 55.675 75L57.175 67.1687H65.625C63.2969 64.2031 60.5281 61.6 57.4156 59.4594V59.4594ZM37.5 51.9969C30.6313 51.9969 24.2 53.8562 18.6781 57.0969L25.775 67.6219C29.2688 65.725 33.2625 64.6594 37.5 64.6594C41.7375 64.6594 45.7312 65.7219 49.225 67.6219L56.3219 57.0969C50.8 53.8562 44.3687 51.9969 37.5 51.9969ZM30.1844 62.2312L28.5062 61.3344L26.8313 62.2312L27.1656 60.3594L25.7969 59.0437L27.6781 58.7844L28.5062 57.075L29.3375 58.7844L31.2219 59.0437L29.8531 60.3594L30.1844 62.2312V62.2312ZM40.025 61.8719L37.4687 60.5031L34.9063 61.8719L35.4187 59.0125L33.3219 57.0031L36.2 56.6063L37.4687 53.9969L38.7344 56.6063L41.6094 57.0031L39.5125 59.0125L40.025 61.8719ZM48.0969 62.2312L46.4219 61.3344L44.7469 62.2312L45.0781 60.3594L43.7094 59.0437L45.5938 58.7844L46.425 57.075L47.2531 58.7844L49.1375 59.0437L47.7688 60.3594L48.0969 62.2312ZM56.2781 30.175C55.3844 32.1688 54.45 34.0219 53.5219 35.7469C66.225 31.5344 73.8375 19.0781 75 6.25H62.2594C62.1469 7.75625 62.0094 9.23437 61.825 10.6406H70.225C68.8938 16.8937 65.3875 25.4188 56.2781 30.175ZM37.5 48.8719C39.3031 48.8719 41.1 48.9937 42.8781 49.2312C46.6937 38.3937 59.375 27.3719 59.375 0H15.625C15.625 27.3688 28.3281 38.3906 32.1562 49.225C33.9187 48.9906 35.7062 48.8719 37.5 48.8719V48.8719ZM52.8781 6.25C51.7281 20.3313 46.775 28.8437 42.3406 36.4656C40.5375 39.5687 38.7906 42.5688 37.5187 45.6844C36.2437 42.5656 34.4906 39.5625 32.6813 36.4563C28.2375 28.8406 23.2719 20.3281 22.1219 6.25H52.8781ZM21.4781 35.7437C20.55 34.0187 19.6156 32.1656 18.7219 30.1719C9.6125 25.4187 6.10625 16.8906 4.77187 10.6375H13.1719C12.9906 9.23438 12.8531 7.75625 12.7406 6.25H0C1.1625 19.0781 8.775 31.5344 21.4781 35.7437V35.7437ZM31.6969 9.375H27.375C28.5438 19.1188 33.1781 31.3219 37.5 36.0844C33.9844 28.075 31.7219 18.5875 31.6969 9.375Z" fill="#E7E7E7"/>
</svg>
