<svg width="75" height="75" viewBox="0 0 75 75" fill="none" xmlns="http://www.w3.org/2000/svg">
<path d="M56.0344 6.25C54.8031 23.4031 48.575 32.4594 43.4687 39.8906C41.8469 42.2469 40.2812 44.525 39.0125 46.875H35.9937C34.7219 44.525 33.1594 42.2469 31.5375 39.8906C26.425 32.4594 20.1969 23.4031 18.9656 6.25H56.0344ZM62.5 0H12.5C12.5 32.7531 28.3156 42.3406 31.9531 53.125H43.05C46.6844 42.3406 62.5 32.7531 62.5 0ZM42.4656 59.375H32.5312C32.1812 63.7156 29.85 70.1531 21.875 70.1531V75H53.125V70.1531C44.9219 70.1531 42.8187 63.7156 42.4656 59.375ZM25 9.375C26.2219 22.3406 31.1312 32.1875 37.7531 40.4594C35.0875 34.9625 31.3875 21.1062 30.9469 9.375H25V9.375Z" fill="#E7E7E7"/>
</svg>
