<svg width="75" height="75" viewBox="0 0 75 75" fill="none" xmlns="http://www.w3.org/2000/svg">
<g clip-path="url(#clip0)">
<path d="M52.8781 9.375C51.7281 23.4563 46.775 31.9687 42.3406 39.5906C40.5375 42.6937 38.7906 45.6938 37.5188 48.8094C36.2438 45.6906 34.4906 42.6875 32.6813 39.5813C28.2375 31.9656 23.2719 23.4531 22.1219 9.375H52.8781ZM59.375 3.125H15.625C15.625 33.7594 31.5781 43.9156 33.1375 56.25H41.9031C43.4563 43.9156 59.375 33.7594 59.375 3.125ZM37.5 39.2094C33.9844 31.2 31.7219 21.7125 31.6969 12.5H27.375C28.5438 22.2438 33.1781 34.4469 37.5 39.2094V39.2094ZM41.9938 59.375H33.0375C32.4063 63.0844 31.0688 67.5594 25.0031 67.5594V71.875H50.0031V67.5594C43.7563 67.5594 42.5938 63.0844 41.9938 59.375ZM64.1188 54.3875C59.7375 52.4062 55.9656 53.7938 53.6375 55.3031C55.9656 53.7906 58.6469 50.7281 58.6219 45.9188C50.525 49.1625 51.45 53.7187 49.9813 56.3719C48.9969 58.1562 46.8344 57.2281 46.8344 57.2281L46.1688 58.3281C47.3094 58.9313 49.2594 59.325 51.5313 59.325C55.6156 59.325 60.7469 58.0469 64.1188 54.3875V54.3875ZM71.7563 41.8187C67.4375 42.1219 65.1375 45.1344 63.9406 47.3281C65.1375 45.1344 65.8594 41.2594 63.7844 37.4594C58.7531 43.4875 61.4344 46.7031 61.4031 49.4312C61.3906 50.7656 59.8719 50.7344 59.8719 50.7344L59.8938 51.9969C60.875 51.8687 69.75 49.7562 71.7563 41.8187ZM74.9938 29.725C71.3344 31.0563 70.1188 34.3281 69.625 36.5219C70.1188 34.3281 69.7531 30.7 67.0156 27.9281C64.1563 34.3906 67.2719 36.5062 67.9219 38.875C68.2406 40.0344 66.9063 40.7687 66.9063 40.7687L67.8125 41.3281C68.0031 41.2375 75.2656 37.1656 74.9938 29.725V29.725ZM74.3688 17.875C71.5469 19.9562 71.1906 23.15 71.325 25.1719C71.1938 23.1531 70.0906 20.05 67.025 18.3531C66.2 24.6594 69.4281 25.6937 70.5938 27.5719C71.1625 28.4906 70.6656 29.6281 70.6656 29.6281L71.5531 29.5687C71.5531 29.5687 71.6344 29.1719 72.0813 28.1875C72.9906 26.175 76.0031 24.0187 74.3688 17.875V17.875ZM68.4281 9.375C68.4281 9.375 67.575 12.45 68.2875 14.7875C69.05 17.2812 71.0156 19.0406 71.0156 19.0406C71.0156 19.0406 72.0781 16.3125 71.325 13.625C70.6313 11.15 68.4281 9.375 68.4281 9.375V9.375ZM28.8344 58.3281L28.1688 57.2281C28.1688 57.2281 26.0094 58.1562 25.0219 56.3719C23.5531 53.7187 24.4781 49.1625 16.3813 45.9188C16.3563 50.7281 19.0375 53.7938 21.3656 55.3031C19.0375 53.7906 15.2656 52.4062 10.8844 54.3875C14.2531 58.0469 19.3875 59.3281 23.4719 59.3281C25.7438 59.325 27.6906 58.9313 28.8344 58.3281V58.3281ZM15.1063 51.9938L15.1281 50.7312C15.1281 50.7312 13.6094 50.7625 13.5969 49.4281C13.5688 46.7 16.2469 43.4875 11.2156 37.4563C9.14064 41.2563 9.86251 45.1344 11.0594 47.325C9.86251 45.1313 7.55939 42.1187 3.24376 41.8156C5.25001 49.7562 14.125 51.8688 15.1063 51.9938V51.9938ZM7.19064 41.3281L8.09689 40.7687C8.09689 40.7687 6.76251 40.0312 7.08126 38.875C7.73126 36.5062 10.8469 34.3906 7.98751 27.9281C5.25001 30.7 4.88126 34.3281 5.37814 36.5219C4.88439 34.3281 3.67189 31.0563 0.009386 29.725C-0.265614 37.1656 6.99689 41.2375 7.19064 41.3281ZM2.92189 28.1906C3.36876 29.175 3.45001 29.5719 3.45001 29.5719L4.33751 29.6313C4.33751 29.6313 3.84064 28.4938 4.40939 27.575C5.57501 25.6969 8.80001 24.6594 7.97814 18.3563C4.90626 20.05 3.80626 23.15 3.67501 25.1719C3.80626 23.15 3.45001 19.9531 0.631261 17.875C-1.00311 24.0187 2.00939 26.175 2.92189 28.1906V28.1906ZM3.67501 13.625C2.92501 16.3125 3.98439 19.0406 3.98439 19.0406C3.98439 19.0406 5.95001 17.2812 6.71251 14.7875C7.42501 12.45 6.57189 9.375 6.57189 9.375C6.57189 9.375 4.36876 11.15 3.67501 13.625V13.625Z" fill="#E7E7E7"/>
</g>
<defs>
<clipPath id="clip0">
<rect width="75" height="75" fill="white"/>
</clipPath>
</defs>
</svg>
